<svg width="200" height="200" viewBox="0 0 200 200" fill="none" xmlns="http://www.w3.org/2000/svg">
<g id="cloudy">
<g id="Group 1">
<path id="Vector" d="M152.34 77.7094C150.18 57.0011 134.9 41 116.98 41C104.15 41 92.5617 48.8891 86.185 61.7748C81.375 55.9978 74.83 52.7358 67.88 52.7358C54.87 52.7358 43.9 64.3406 42.4383 79.3854C31.9633 84.0946 25 95.8891 25 109.127C25 126.7 37.185 141 52.1633 141H147.837C162.813 140.998 175 126.7 175 109.127C175 93.4895 165.35 80.2518 152.34 77.7094Z" fill="#D6D5D5"/>
<path id="Vector_2" d="M138.757 103.304C136.827 85.081 123.177 71 107.169 71C95.7073 71 85.3551 77.9424 79.6586 89.2818C75.3617 84.1981 69.5148 81.3275 63.3061 81.3275C51.6839 81.3275 41.884 91.5398 40.5782 104.779C31.2206 108.923 25 119.302 25 130.952C25 146.416 35.8853 159 49.2659 159H134.734C148.113 158.998 159 146.416 159 130.952C159 117.191 150.379 105.542 138.757 103.304Z" fill="#E7E7E7"/>
</g>
</g>
</svg>
