<svg width="200" height="200" viewBox="0 0 200 200" fill="none" xmlns="http://www.w3.org/2000/svg">
<g id="rainy">
<g id="cloud">
<path id="Vector" d="M152.34 77.3316C150.18 56.2723 134.9 40 116.98 40C104.15 40 92.5617 48.0228 86.185 61.1269C81.375 55.252 74.83 51.9347 67.88 51.9347C54.87 51.9347 43.9 63.7362 42.4383 79.036C31.9633 83.825 25 95.8194 25 109.282C25 127.153 37.185 141.695 52.1633 141.695H147.837C162.813 141.693 175 127.153 175 109.282C175 93.3792 165.35 79.917 152.34 77.3316Z" fill="#D6D5D5"/>
<path id="Vector_2" d="M138.757 103.36C136.827 84.8281 123.177 70.5085 107.169 70.5085C95.7073 70.5085 85.3551 77.5685 79.6586 89.1002C75.3617 83.9303 69.5148 81.011 63.3061 81.011C51.6839 81.011 41.884 91.3964 40.5782 104.86C31.2206 109.075 25 119.63 25 131.476C25 147.203 35.8853 160 49.2659 160H134.734C148.113 159.998 159 147.203 159 131.476C159 117.482 150.379 105.635 138.757 103.36Z" fill="#E7E7E7"/>
</g>
<g id="blur3">
<path id="Vector_3" d="M122 157C116.486 157 112 152.258 112 146.428C112 139.007 117.629 132.146 121.355 127.606L121.761 127.11C121.881 126.963 122.119 126.963 122.239 127.11L122.645 127.606C126.37 132.146 132 139.007 132 146.428C132 152.258 127.514 157 122 157Z" fill="#72C0EC"/>
</g>
<g id="blur2">
<path id="Vector_4" d="M88.9998 172C83.4858 172 79 167.258 79 161.428C79 154.007 84.6294 147.146 88.3547 142.606L88.7615 142.11C88.8813 141.963 89.1187 141.963 89.2385 142.11L89.645 142.606C93.3703 147.146 99 154.007 99 161.428C99 167.258 94.5139 172 88.9998 172Z" fill="#72C0EC"/>
</g>
<g id="blur1">
<path id="Vector_5" d="M61.9998 151C56.4858 151 52 146.258 52 140.428C52 133.007 57.6294 126.146 61.3547 121.606L61.7615 121.11C61.8813 120.963 62.1187 120.963 62.2385 121.11L62.645 121.606C66.3703 126.146 72 133.007 72 140.428C72 146.258 67.5139 151 61.9998 151Z" fill="#72C0EC"/>
</g>
</g>
</svg>
