<svg width="200" height="200" viewBox="0 0 200 200" fill="none" xmlns="http://www.w3.org/2000/svg">
<g id="sunny">
<g id="Group">
<path id="Vector" d="M100 138.333C78.8633 138.333 61.6667 121.138 61.6667 100C61.6667 78.8633 78.8633 61.6667 100 61.6667C121.138 61.6667 138.333 78.8633 138.333 100C138.333 121.138 121.138 138.333 100 138.333Z" fill="#FED27C"/>
<path id="Vector_2" d="M100 54.26C97.2383 54.26 95 52.0217 95 49.26V30C95 27.2383 97.2383 25 100 25C102.762 25 105 27.2383 105 30V49.26C105 52.02 102.762 54.26 100 54.26Z" fill="#FED27C"/>
<path id="Vector_3" d="M100 175C97.2383 175 95 172.762 95 170V150.74C95 147.978 97.2383 145.74 100 145.74C102.762 145.74 105 147.978 105 150.74V170C105 172.762 102.762 175 100 175Z" fill="#FED27C"/>
<path id="Vector_4" d="M49.26 105H30C27.2383 105 25 102.762 25 100C25 97.2383 27.2383 95 30 95H49.26C52.0217 95 54.26 97.2383 54.26 100C54.26 102.762 52.02 105 49.26 105Z" fill="#FED27C"/>
<path id="Vector_5" d="M170 105H150.74C147.978 105 145.74 102.762 145.74 100C145.74 97.2383 147.978 95 150.74 95H170C172.762 95 175 97.2383 175 100C175 102.762 172.762 105 170 105Z" fill="#FED27C"/>
<path id="Vector_6" d="M135.878 69.1217C134.598 69.1217 133.32 68.6333 132.343 67.6583C130.39 65.705 130.39 62.54 132.343 60.5867L145.962 46.9683C147.915 45.015 151.078 45.0167 153.032 46.9683C154.985 48.9217 154.985 52.0867 153.032 54.04L139.413 67.6583C138.438 68.6333 137.158 69.1217 135.878 69.1217Z" fill="#FED27C"/>
<path id="Vector_7" d="M50.5033 154.497C49.2233 154.497 47.9433 154.008 46.9683 153.032C45.015 151.08 45.015 147.913 46.9683 145.962L60.5867 132.343C62.5383 130.39 65.705 130.39 67.6567 132.343C69.61 134.295 69.61 137.462 67.6567 139.413L54.0383 153.032C53.0617 154.008 51.7817 154.497 50.5033 154.497Z" fill="#FED27C"/>
<path id="Vector_8" d="M64.1217 69.1217C62.8417 69.1217 61.5617 68.6333 60.5867 67.6583L46.9683 54.04C45.015 52.0867 45.015 48.9217 46.9683 46.9683C48.9217 45.015 52.0883 45.0167 54.04 46.9683L67.6583 60.5867C69.6117 62.54 69.6117 65.705 67.6583 67.6583C66.68 68.6333 65.4 69.1217 64.1217 69.1217Z" fill="#FED27C"/>
<path id="Vector_9" d="M149.497 154.497C148.217 154.497 146.938 154.008 145.962 153.032L132.343 139.413C130.39 137.462 130.39 134.295 132.343 132.343C134.297 130.39 137.46 130.39 139.413 132.343L153.032 145.962C154.985 147.913 154.985 151.08 153.032 153.032C152.055 154.008 150.777 154.497 149.497 154.497Z" fill="#FED27C"/>
</g>
</g>
</svg>
