<svg width="200" height="200" viewBox="0 0 200 200" fill="none" xmlns="http://www.w3.org/2000/svg">
<g id="sunny-cloudy">
<g id="sun">
<path id="Vector" d="M80 103.556C65.9089 103.556 54.4444 92.0922 54.4444 78C54.4444 63.9089 65.9089 52.4445 80 52.4445C94.0922 52.4445 105.556 63.9089 105.556 78C105.556 92.0922 94.0922 103.556 80 103.556Z" fill="#FED27C"/>
<path id="Vector_2" d="M80 47.5067C78.1589 47.5067 76.6667 46.0144 76.6667 44.1733V31.3333C76.6667 29.4922 78.1589 28 80 28C81.8411 28 83.3333 29.4922 83.3333 31.3333V44.1733C83.3333 46.0133 81.8411 47.5067 80 47.5067Z" fill="#FED27C"/>
<path id="Vector_3" d="M80 128C78.1589 128 76.6667 126.508 76.6667 124.667V111.827C76.6667 109.986 78.1589 108.493 80 108.493C81.8411 108.493 83.3333 109.986 83.3333 111.827V124.667C83.3333 126.508 81.8411 128 80 128Z" fill="#FED27C"/>
<path id="Vector_4" d="M46.1733 81.3333H33.3333C31.4922 81.3333 30 79.8411 30 78C30 76.1589 31.4922 74.6667 33.3333 74.6667H46.1733C48.0144 74.6667 49.5067 76.1589 49.5067 78C49.5067 79.8411 48.0133 81.3333 46.1733 81.3333Z" fill="#FED27C"/>
<path id="Vector_5" d="M126.667 81.3333H113.827C111.986 81.3333 110.493 79.8411 110.493 78C110.493 76.1589 111.986 74.6667 113.827 74.6667H126.667C128.508 74.6667 130 76.1589 130 78C130 79.8411 128.508 81.3333 126.667 81.3333Z" fill="#FED27C"/>
<path id="Vector_6" d="M103.919 57.4144C103.066 57.4144 102.213 57.0889 101.562 56.4389C100.26 55.1367 100.26 53.0267 101.562 51.7244L110.641 42.6456C111.943 41.3433 114.052 41.3444 115.354 42.6456C116.657 43.9478 116.657 46.0578 115.354 47.36L106.276 56.4389C105.626 57.0889 104.772 57.4144 103.919 57.4144Z" fill="#FED27C"/>
<path id="Vector_7" d="M47.0022 114.331C46.1489 114.331 45.2956 114.006 44.6456 113.354C43.3433 112.053 43.3433 109.942 44.6456 108.641L53.7244 99.5622C55.0255 98.26 57.1367 98.26 58.4378 99.5622C59.74 100.863 59.74 102.974 58.4378 104.276L49.3589 113.354C48.7078 114.006 47.8544 114.331 47.0022 114.331Z" fill="#FED27C"/>
<path id="Vector_8" d="M56.0811 57.4144C55.2278 57.4144 54.3744 57.0889 53.7244 56.4389L44.6456 47.36C43.3433 46.0578 43.3433 43.9478 44.6456 42.6456C45.9478 41.3433 48.0589 41.3444 49.36 42.6456L58.4389 51.7244C59.7411 53.0267 59.7411 55.1367 58.4389 56.4389C57.7867 57.0889 56.9333 57.4144 56.0811 57.4144Z" fill="#FED27C"/>
<path id="Vector_9" d="M112.998 114.331C112.144 114.331 111.292 114.006 110.641 113.354L101.562 104.276C100.26 102.974 100.26 100.863 101.562 99.5622C102.864 98.26 104.973 98.26 106.276 99.5622L115.354 108.641C116.657 109.942 116.657 112.053 115.354 113.354C114.703 114.006 113.851 114.331 112.998 114.331Z" fill="#FED27C"/>
</g>
<g id="cloud">
<path id="Vector_10" d="M148.851 104.11C146.835 86.5602 132.573 73 115.848 73C103.873 73 93.0576 79.6857 87.106 90.6058C82.6167 85.71 76.508 82.9456 70.0213 82.9456C57.8787 82.9456 47.64 92.7802 46.2758 105.53C36.4991 109.521 30 119.516 30 130.735C30 145.627 41.3727 157.746 55.3524 157.746H144.648C158.626 157.744 170 145.627 170 130.735C170 117.483 160.993 106.264 148.851 104.11Z" fill="#D6D5D5"/>
<path id="Vector_11" d="M136.173 125.8C134.372 110.357 121.632 98.4237 106.691 98.4237C95.9935 98.4237 86.3314 104.307 81.0147 113.917C77.0042 109.609 71.5471 107.176 65.7524 107.176C54.9049 107.176 45.7584 115.83 44.5397 127.05C35.8059 130.562 30 139.358 30 149.23C30 162.336 40.1596 173 52.6482 173H132.418C144.906 172.999 155.067 162.336 155.067 149.23C155.067 137.568 147.021 127.696 136.173 125.8Z" fill="#E7E7E7"/>
</g>
</g>
</svg>
