<svg xmlns="http://www.w3.org/2000/svg" xmlns:xlink="http://www.w3.org/1999/xlink" version="1.1" width="25" height="25" viewBox="0 0 256 256" xml:space="preserve">

<defs>
</defs>
<g style="stroke: none; stroke-width: 0; stroke-dasharray: none; stroke-linecap: butt; stroke-linejoin: miter; stroke-miterlimit: 10; fill: none; fill-rule: nonzero; opacity: 1;" transform="translate(1.4065934065934016 1.4065934065934016) scale(2.81 2.81)" >
	<path d="M 46.072 6.134 V 1.068 C 46.072 0.481 45.591 0 45.004 0 h -0.007 c -0.588 0 -1.068 0.481 -1.068 1.068 v 5.066 C 19.572 6.551 0 21.065 0 38.922 c 2.467 -3.546 6.583 -5.873 11.25 -5.873 c 4.667 0 8.783 2.327 11.25 5.873 c 2.467 -3.546 6.583 -5.873 11.25 -5.873 c 4.047 0 7.676 1.754 10.178 4.531 v 32.688 c -0.664 0.374 -1.118 1.074 -1.118 1.886 v 9.144 c 0 2.403 -1.961 4.351 -4.38 4.351 c -2.419 0 -4.38 -1.948 -4.38 -4.351 c 0 -1.202 -0.981 -2.176 -2.19 -2.176 c -1.21 0 -2.19 0.974 -2.19 2.176 c 0 4.806 3.922 8.702 8.76 8.702 c 4.838 0 8.76 -3.896 8.76 -8.702 v -9.144 c 0 -0.813 -0.454 -1.513 -1.118 -1.886 V 37.58 c 2.502 -2.777 6.131 -4.531 10.178 -4.531 c 4.667 0 8.783 2.327 11.25 5.873 c 2.467 -3.546 6.583 -5.873 11.25 -5.873 c 4.667 0 8.783 2.327 11.25 5.873 C 90 21.065 70.428 6.551 46.072 6.134 z" style="stroke: none; stroke-width: 1; stroke-dasharray: none; stroke-linecap: butt; stroke-linejoin: miter; stroke-miterlimit: 10; fill:rgba(33, 33, 33, 0.5); fill-rule: nonzero; opacity: 1;" transform=" matrix(1 0 0 1 0 0) " stroke-linecap="round" />
</g>
</svg>