<svg xmlns="http://www.w3.org/2000/svg" xmlns:xlink="http://www.w3.org/1999/xlink" version="1.1" width="256" height="256" viewBox="0 0 256 256" xml:space="preserve">

<defs>
</defs>
<g style="stroke: none; stroke-width: 0; stroke-dasharray: none; stroke-linecap: butt; stroke-linejoin: miter; stroke-miterlimit: 10; fill: none; fill-rule: nonzero; opacity: 1;" transform="translate(1.4065934065934016 1.4065934065934016) scale(2.81 2.81)" >
	<path d="M 46 5.536 V 1 c 0 -0.552 -0.448 -1 -1 -1 s -1 0.448 -1 1 v 4.536 C 19.673 5.932 0.045 20.686 0.045 38.777 c 0 0.438 0.285 0.824 0.702 0.955 c 0.098 0.031 0.199 0.045 0.298 0.045 c 0.322 0 0.632 -0.156 0.823 -0.432 C 4.181 36 7.981 34.002 12.034 34.002 S 19.888 36 22.2 39.345 c 0.01 0.014 0.028 0.019 0.038 0.032 c 0.172 0.225 0.427 0.382 0.732 0.398 c 0.018 0.001 0.036 0.001 0.054 0.001 c 0.168 0 0.319 -0.053 0.459 -0.127 c 0.001 0 0.001 -0.001 0.002 -0.001 c 0.121 -0.064 0.223 -0.152 0.308 -0.259 c 0.015 -0.018 0.04 -0.025 0.053 -0.045 c 2.312 -3.345 6.112 -5.343 10.166 -5.343 c 3.957 0 7.663 1.914 9.989 5.117 v 29.372 c -1.239 0.42 -2.139 1.581 -2.139 2.96 v 8.991 c 0 1.808 -1.471 3.278 -3.278 3.278 s -3.278 -1.471 -3.278 -3.278 c 0 -1.731 -1.408 -3.14 -3.14 -3.14 c -1.731 0 -3.139 1.408 -3.139 3.14 c 0 5.27 4.287 9.557 9.557 9.557 s 9.557 -4.287 9.557 -9.557 v -8.991 c 0 -1.379 -0.9 -2.54 -2.14 -2.96 V 39.119 c 2.325 -3.203 6.031 -5.117 9.988 -5.117 c 4.053 0 7.854 1.998 10.167 5.343 c 0.015 0.022 0.042 0.029 0.059 0.05 c 0.081 0.1 0.176 0.179 0.288 0.242 c 0.009 0.004 0.015 0.01 0.024 0.015 c 0.153 0.08 0.32 0.135 0.504 0.124 c 0.305 -0.016 0.56 -0.174 0.732 -0.399 c 0.01 -0.013 0.028 -0.017 0.037 -0.031 c 2.313 -3.345 6.112 -5.343 10.166 -5.343 S 85.819 36 88.132 39.345 c 0.248 0.36 0.703 0.517 1.12 0.386 c 0.418 -0.13 0.702 -0.517 0.702 -0.955 C 89.954 20.686 70.327 5.932 46 5.536 z M 12.034 32.002 c -3.675 0 -7.171 1.413 -9.806 3.879 C 4.127 20.907 20.605 8.961 41.209 7.643 c -11.433 7.372 -17.673 16.785 -18.982 28.638 C 19.552 33.576 15.897 32.002 12.034 32.002 z M 34.011 32.002 c -3.631 0 -7.079 1.388 -9.702 3.8 C 25.797 24.352 32.271 15.313 44 8.275 v 27.789 C 41.345 33.488 37.774 32.002 34.011 32.002 z M 46.14 80.443 c 0 4.167 -3.39 7.557 -7.557 7.557 s -7.557 -3.39 -7.557 -7.557 c 0 -0.628 0.511 -1.14 1.139 -1.14 c 0.628 0 1.14 0.512 1.14 1.14 c 0 2.91 2.368 5.278 5.278 5.278 s 5.278 -2.368 5.278 -5.278 v -8.991 c 0 -0.628 0.511 -1.139 1.139 -1.139 c 0.628 0 1.14 0.511 1.14 1.139 V 80.443 z M 55.988 32.002 c -3.763 0 -7.334 1.485 -9.988 4.061 V 8.256 c 11.74 7.04 18.202 16.09 19.69 27.546 C 63.066 33.39 59.619 32.002 55.988 32.002 z M 77.966 32.002 c -3.864 0 -7.518 1.574 -10.193 4.279 c -1.31 -11.855 -7.56 -21.267 -18.998 -28.639 c 20.611 1.313 37.096 13.26 38.996 28.239 C 85.137 33.415 81.642 32.002 77.966 32.002 z" style="stroke: none; stroke-width: 1; stroke-dasharray: none; stroke-linecap: butt; stroke-linejoin: miter; stroke-miterlimit: 10; fill: rgb(0,0,0); fill-rule: nonzero; opacity: 1;" transform=" matrix(1 0 0 1 0 0) " stroke-linecap="round" />
</g>
</svg>