<svg xmlns="http://www.w3.org/2000/svg" xmlns:xlink="http://www.w3.org/1999/xlink" version="1.1" width="256" height="256" viewBox="0 0 256 256" xml:space="preserve">

<defs>
</defs>
<g style="stroke: none; stroke-width: 0; stroke-dasharray: none; stroke-linecap: butt; stroke-linejoin: miter; stroke-miterlimit: 10; fill: none; fill-rule: nonzero; opacity: 1;" transform="translate(1.4065934065934016 1.4065934065934016) scale(2.81 2.81)" >
	<path d="M 76.404 38.204 C 75.108 27.615 65.94 19.433 55.188 19.433 c -7.698 0 -14.651 4.034 -18.477 10.623 c -2.886 -2.954 -6.813 -4.622 -10.983 -4.622 c -7.806 0 -14.388 5.934 -15.265 13.627 C 4.178 41.469 0 47.5 0 54.269 c 0 8.986 7.311 16.298 16.298 16.298 h 57.404 C 82.688 70.566 90 63.255 90 54.269 C 90 46.273 84.21 39.504 76.404 38.204 z" style="stroke: none; stroke-width: 1; stroke-dasharray: none; stroke-linecap: butt; stroke-linejoin: miter; stroke-miterlimit: 10; fill: rgb(0,0,0); fill-rule: nonzero; opacity: 1;" transform=" matrix(1 0 0 1 0 0) " stroke-linecap="round" />
</g>
</svg>